<?xml version="1.0" encoding="utf-8"?>
<!-- Generator: Adobe Illustrator 25.0.1, SVG Export Plug-In . SVG Version: 6.00 Build 0)  -->
<svg version="1.1" xmlns="http://www.w3.org/2000/svg" xmlns:xlink="http://www.w3.org/1999/xlink" x="0px" y="0px"
	 viewBox="0 0 1362.1 248.5" style="enable-background:new 0 0 1362.1 248.5;" xml:space="preserve">
<style type="text/css">
	.st0{fill:#00254C;}
	.st1{fill:url(#SVGID_1_);}
	.st2{fill:url(#SVGID_2_);}
	.st3{fill:url(#SVGID_3_);}
	.st4{fill:url(#SVGID_4_);}
	.st5{fill:url(#SVGID_5_);}
	.st6{fill:url(#SVGID_6_);}
	.st7{fill:url(#SVGID_7_);}
	.st8{fill:url(#SVGID_8_);}
	.st9{fill:url(#SVGID_9_);}
	.st10{fill:url(#SVGID_10_);}
	.st11{fill:url(#SVGID_11_);}
</style>
<g>
	<g>
		<path class="st0" d="M1326.3,47.6c-6.8,0-12.3-5.5-12.3-12.3c0-6.8,5.5-12.3,12.3-12.3s12.3,5.5,12.3,12.3
			C1338.6,42.1,1333.1,47.6,1326.3,47.6z M1326.3,24.1c-6.2,0-11.2,5-11.2,11.2c0,6.2,5,11.2,11.2,11.2s11.2-5,11.2-11.2
			C1337.5,29.1,1332.5,24.1,1326.3,24.1z"/>
	</g>
	<g>
		<path class="st0" d="M1328.5,41l-2.4-4.9h-2.2V41h-1.8V29.4h4.5c2.2,0,3.6,1.4,3.6,3.4c0,1.7-1,2.7-2.3,3.1l2.7,5.1H1328.5z
			 M1326.5,31h-2.6v3.6h2.6c1.2,0,2-0.7,2-1.8C1328.5,31.7,1327.7,31,1326.5,31z"/>
	</g>
</g>
<g>
	<g>
		<linearGradient id="SVGID_1_" gradientUnits="userSpaceOnUse" x1="1346.1552" y1="93.5606" x2="676.2621" y2="219.6581">
			<stop  offset="0" style="stop-color:#00BDDD"/>
			<stop  offset="1" style="stop-color:#0076C0"/>
		</linearGradient>
		<path class="st1" d="M1293.6,41c3.9,0,5,1.9,5.6,5.2l2.1,12.6c0.6,3.3,1.9,3.9,5,3.9h16.1c2.5,0,3.9,1.4,3.9,3.9v16.3
			c0,2.5-1.4,3.9-3.9,3.9h-17.6c-1.4,0-2.3,0.8-2.3,2.3v39.3c0,5.2,1.7,10.5,12.4,10.5c6.4,0,7.9-1,11.2-1c1.5,0,2.7,1.4,2.9,3.5
			l1.9,14.7c0.4,3.1-0.9,4.8-4.1,6c-6.3,2.3-12.4,2.7-16.1,2.7c-29.3,0-35.8-12.2-35.8-33.3V44.3c0-1.7,1.2-3.3,3.3-3.3H1293.6z"/>
		<linearGradient id="SVGID_2_" gradientUnits="userSpaceOnUse" x1="1324.5503" y1="-21.2157" x2="654.6572" y2="104.8819">
			<stop  offset="0" style="stop-color:#00BDDD"/>
			<stop  offset="1" style="stop-color:#0076C0"/>
		</linearGradient>
		<path class="st2" d="M668.7,67.7c0-29.2,7.9-42.4,41.3-42.4c29.1,0,44,11.6,44,33.5c0,15.1-5.2,23.4-14.5,29.3v0.6
			c12.4,5,19.8,14.9,19.8,34.3c0,25.6-15.1,39.9-42.4,39.9h-29.1c-11.8,0-19-8.7-19-18V67.7z M709.2,82.6c11.2,0,15.7-5.2,15.7-16.3
			c0-10.3-4.8-14.7-14.7-14.7c-9.1,0-12.4,4.1-12.4,12.2v15.9c0,1.7,1.2,2.9,3.1,2.9H709.2z M712.7,136.5c11.4,0,16.3-5.6,16.3-16.3
			c0-11.8-6.4-16.1-16.5-16.1h-11.6c-1.6,0-3.1,1.2-3.1,2.9v26.7c0,1.7,1.7,2.7,3.1,2.7H712.7z"/>
		<linearGradient id="SVGID_3_" gradientUnits="userSpaceOnUse" x1="1327.1002" y1="-7.6688" x2="657.2072" y2="118.4287">
			<stop  offset="0" style="stop-color:#00BDDD"/>
			<stop  offset="1" style="stop-color:#0076C0"/>
		</linearGradient>
		<path class="st3" d="M791.4,27.2c2.5,0,3.9,1.4,3.9,3.9v127.9c0,2.5-1.4,3.9-3.9,3.9h-19.6c-2.5,0-3.9-1.4-3.9-3.9V31.1
			c0-2.5,1.4-3.9,3.9-3.9H791.4z"/>
		<linearGradient id="SVGID_4_" gradientUnits="userSpaceOnUse" x1="1332.2478" y1="19.6774" x2="662.3547" y2="145.775">
			<stop  offset="0" style="stop-color:#00BDDD"/>
			<stop  offset="1" style="stop-color:#0076C0"/>
		</linearGradient>
		<path class="st4" d="M883,62.7c2.5,0,3.9,1.4,3.9,3.9v54.8c0,32.2-10.1,43.4-39.7,43.4c-29.8,0-40.3-11.2-40.3-43.4V66.5
			c0-2.5,1.4-3.9,3.9-3.9h19.8c2.5,0,3.9,1.4,3.9,3.9v58.7c0,11,3.5,14.3,12.8,14.3c9.1,0,12-3.3,12-14.3V66.5
			c0-2.5,1.4-3.9,3.9-3.9H883z"/>
		<linearGradient id="SVGID_5_" gradientUnits="userSpaceOnUse" x1="1335.7712" y1="38.3958" x2="665.8782" y2="164.4933">
			<stop  offset="0" style="stop-color:#00BDDD"/>
			<stop  offset="1" style="stop-color:#0076C0"/>
		</linearGradient>
		<path class="st5" d="M972.9,150.8c1,3.9-0.4,7.4-3.9,9.1c-4.8,2.7-15.9,4.5-28.7,4.5c-29.8,0-43.6-13.4-43.6-51.9
			c0-39.1,14.9-51.7,42.2-51.7c25.6,0,38,14.5,38,40.7v8.5c0,10.9-4.7,15.1-15.1,15.1h-36c-1.2,0-1.5,0.4-1.5,1.4v0.6
			c0,8.5,4.3,13.4,18.2,13.4c12.2,0,20-3.1,23.4-3.1c2.1,0,3.7,1.2,4.3,3.7L972.9,150.8z M950.4,104.3c1.5,0,1.9-0.8,1.9-1.9
			c0-13-4.7-17.6-13-17.6c-9.5,0-15.1,4.5-15.1,17.6c0,1.4,0.6,1.9,1.9,1.9H950.4z"/>
		<linearGradient id="SVGID_6_" gradientUnits="userSpaceOnUse" x1="1341.1545" y1="66.9949" x2="671.2615" y2="193.0924">
			<stop  offset="0" style="stop-color:#00BDDD"/>
			<stop  offset="1" style="stop-color:#0076C0"/>
		</linearGradient>
		<path class="st6" d="M1079.7,92.5c0-24.4,8.7-31.8,27.7-31.8c10.7,0,17.6,1.3,22.3,2.7c4.9,1.5,6.2,3.5,4.8,9.1l-1.7,10.1
			c-0.4,2.5-1.7,4.1-3.9,4.1c-3.3,0-7.9-1-13.2-1c-7,0-8.5,2.7-8.5,10.3v63.7c0,1.5-1.2,3.1-3.3,3.1H1083c-2.1,0-3.3-1.6-3.3-3.1
			V92.5z"/>
		<linearGradient id="SVGID_7_" gradientUnits="userSpaceOnUse" x1="1345.7489" y1="91.4019" x2="675.8558" y2="217.4995">
			<stop  offset="0" style="stop-color:#00BDDD"/>
			<stop  offset="1" style="stop-color:#0076C0"/>
		</linearGradient>
		<path class="st7" d="M1182.4,97.9c0-21.5,5.6-37.2,40.7-37.2c34.9,0,40.3,15.7,40.3,37.2v61.8c0,1.5-1,3.1-3.3,3.1h-20.9
			c-2.7,0-3.3-1.5-3.3-3.1v-59.7c0-11.8-3.9-14.1-12.8-14.1c-8.7,0-13.2,2.3-13.2,14.1v59.7c0,1.9-1.2,3.1-3.1,3.1h-21.3
			c-1.9,0-3.1-1.2-3.1-3.1V97.9z"/>
		<linearGradient id="SVGID_8_" gradientUnits="userSpaceOnUse" x1="1343.0475" y1="77.0509" x2="673.1545" y2="203.1485">
			<stop  offset="0" style="stop-color:#00BDDD"/>
			<stop  offset="1" style="stop-color:#0076C0"/>
		</linearGradient>
		<path class="st8" d="M1170.4,74.1c0,0,0-14.4-13.9-14.3h-0.2c0,0-13.9,0-13.9,14.3v1v36.5v47.3c0,2.7,1.2,3.9,3.3,3.9h20.9
			c2.7,0,3.9-1.2,3.9-3.9V75.1c0,0,0,0,0,0V74.1z"/>
		<linearGradient id="SVGID_9_" gradientUnits="userSpaceOnUse" x1="1340.3002" y1="62.4555" x2="670.4071" y2="188.553">
			<stop  offset="0" style="stop-color:#00BDDD"/>
			<stop  offset="1" style="stop-color:#0076C0"/>
		</linearGradient>
		<path class="st9" d="M1028.2,60.7c-28.8,0.2-41.8,14.9-41.8,40.3v59.9v6.8v6.2c0,0,0,14.1,13.7,14h0.2c0,0,13.7,0,13.7-14v-10.6
			c0-1,0.6-1.5,1.4-1.5c1,0,7.2,2.9,17.1,2.9c24.5,0,37.6-18.7,37.6-52.3C1070,77,1059.4,60.5,1028.2,60.7 M1025.4,139.6
			c-9.2,0-11.6-1.9-11.6-9v-24.6c0-14.9,3.2-20.1,14-20.1c10.8,0,14,4.3,14,26.5C1041.9,133.8,1037.9,139.6,1025.4,139.6"/>
		<linearGradient id="SVGID_10_" gradientUnits="userSpaceOnUse" x1="1355.0483" y1="140.8058" x2="685.1553" y2="266.9033">
			<stop  offset="0" style="stop-color:#00BDDD"/>
			<stop  offset="1" style="stop-color:#0076C0"/>
		</linearGradient>
		<path class="st10" d="M1002.2,194H998c0,0-11.6,0-11.6,12v3.2c0,0,0,12,11.6,12h4.2c0,0,11.6,0,11.7-12l0-3.2
			C1013.8,206,1013.8,194,1002.2,194"/>
	</g>
	<path class="st0" d="M31,68c0-29.3,7.9-42.4,41.3-42.4c29.1,0,44,11.6,44,33.5c0,15.1-5.2,23.4-14.5,29.3V89
		c12.4,5,19.8,14.9,19.8,34.3c0,25.6-15.1,39.9-42.4,39.9H50c-11.8,0-19-8.7-19-18V68z M71.5,82.9c11.2,0,15.7-5.2,15.7-16.3
		c0-10.3-4.8-14.7-14.7-14.7c-9.1,0-12.4,4.1-12.4,12.2V80c0,1.7,1.2,2.9,3.1,2.9H71.5z M75,136.8c11.4,0,16.3-5.6,16.3-16.3
		c0-11.8-6.4-16.1-16.5-16.1H63.2c-1.5,0-3.1,1.2-3.1,2.9v26.7c0,1.7,1.7,2.7,3.1,2.7H75z"/>
	<path class="st0" d="M205.2,60.7c2.5,0,3.9,1.4,3.9,3.9v54.8c0,32.2-10.1,43.4-39.7,43.4c-29.8,0-40.3-11.2-40.3-43.4V64.6
		c0-2.5,1.4-3.9,3.9-3.9h19.8c2.5,0,3.9,1.4,3.9,3.9v58.7c0,11.1,3.5,14.3,12.8,14.3c9.1,0,12-3.3,12-14.3V64.6
		c0-2.5,1.4-3.9,3.9-3.9H205.2z"/>
	<path class="st0" d="M236.4,115.3c-11-5.1-18.8-11.2-18.8-28.5c0-21.2,12.3-28.1,36.8-28.1c11.4,0,22.7,1.3,27.3,3.1
		c1.9,0.8,3.3,2.9,2.7,6l-1.9,11.6c-0.4,2.7-1,4.1-3.9,4.1c-3.9,0-13.4-1.8-21.9-1.8c-7.5,0-11.8,1.5-11.8,6.4
		c0,5.6,6,7.1,14.1,10.7l9.3,4.3c12.3,5.6,18.8,11.2,18.8,28.3c0,21.1-11.4,31.4-39.9,31.4c-7.2,0-20-1.4-24.4-2.5
		c-3.1-0.8-4.5-3.1-4.1-6.2l1.7-14c0.2-1.7,1.2-2.7,2.9-2.7c3.1,0,10.5,1.7,22.1,1.7c11.4,0,14.5-2.7,14.5-7.4
		c0-5-3.3-6.6-10.9-10.3L236.4,115.3z"/>
	<path class="st0" d="M335,97.9c0-21.5,5.6-37.2,40.7-37.2c34.9,0,40.3,15.7,40.3,37.2v61.8c0,1.5-1,3.1-3.3,3.1h-20.9
		c-2.7,0-3.3-1.6-3.3-3.1V100c0-11.8-3.9-14.1-12.8-14.1c-8.7,0-13.2,2.3-13.2,14.1v59.7c0,1.9-1.2,3.1-3.1,3.1h-21.3
		c-1.9,0-3.1-1.2-3.1-3.1V97.9z"/>
	<path class="st0" d="M500.3,149.2c1,3.9-0.4,7.4-3.9,9.1c-4.8,2.7-15.9,4.5-28.7,4.5c-29.8,0-43.6-13.4-43.6-51.9
		c0-39.2,14.9-51.7,42.3-51.7c25.6,0,38,14.5,38,40.7v8.5c0,10.9-4.6,15.1-15.1,15.1h-36c-1.2,0-1.5,0.4-1.5,1.4v0.6
		c0,8.5,4.3,13.4,18.2,13.4c12.2,0,20-3.1,23.5-3.1c2.1,0,3.7,1.2,4.3,3.7L500.3,149.2z M477.8,102.7c1.6,0,1.9-0.8,1.9-1.9
		c0-13-4.7-17.6-13-17.6c-9.5,0-15.1,4.5-15.1,17.6c0,1.4,0.6,1.9,1.9,1.9H477.8z"/>
	<path class="st0" d="M530.3,115.3c-11-5.1-18.8-11.2-18.8-28.5c0-21.2,12.3-28.1,36.8-28.1c11.4,0,22.7,1.3,27.3,3.1
		c2,0.8,3.3,2.9,2.7,6l-1.9,11.6c-0.4,2.7-1,4.1-3.9,4.1c-3.9,0-13.4-1.8-21.9-1.8c-7.5,0-11.8,1.5-11.8,6.4c0,5.6,6,7.1,14.1,10.7
		l9.3,4.3c12.3,5.6,18.8,11.2,18.8,28.3c0,21.1-11.4,31.4-39.9,31.4c-7.2,0-19.9-1.4-24.4-2.5c-3.1-0.8-4.5-3.1-4.1-6.2l1.7-14
		c0.2-1.7,1.2-2.7,2.9-2.7c3.1,0,10.5,1.7,22.1,1.7c11.4,0,14.5-2.7,14.5-7.4c0-5-3.3-6.6-10.9-10.3L530.3,115.3z"/>
	<path class="st0" d="M603.8,115.3c-11-5.1-18.8-11.2-18.8-28.5c0-21.2,12.3-28.1,36.8-28.1c11.4,0,22.7,1.3,27.3,3.1
		c2,0.8,3.3,2.9,2.7,6L650,79.5c-0.4,2.7-1,4.1-3.9,4.1c-3.9,0-13.4-1.8-21.9-1.8c-7.5,0-11.8,1.5-11.8,6.4c0,5.6,6,7.1,14.2,10.7
		l9.3,4.3c12.3,5.6,18.8,11.2,18.8,28.3c0,21.1-11.4,31.4-39.9,31.4c-7.2,0-20-1.4-24.4-2.5c-3.1-0.8-4.5-3.1-4.1-6.2l1.7-14
		c0.2-1.7,1.2-2.7,2.9-2.7c3.1,0,10.5,1.7,22.1,1.7c11.4,0,14.5-2.7,14.5-7.4c0-5-3.2-6.6-10.8-10.3L603.8,115.3z"/>
	<path class="st0" d="M309.7,60.7h-0.2c0,0-14.1,0-14.1,14.5v38c0,0,0,0.1,0,0.2v45.8c0,2.5,1.2,3.6,3.3,3.6h21.2
		c2.7,0,3.9-1.1,3.9-3.6v-46V81.3v-6.1C323.8,75.2,323.8,60.7,309.7,60.7"/>
	<path class="st0" d="M311.7,22.1h-4.3c0,0-12,0-12.1,12.4l0,3.3c0,0,0,12.4,12,12.4h4.3c0,0,12,0,12-12.4v-3.3
		C323.8,34.5,323.8,22.1,311.7,22.1"/>
	<linearGradient id="SVGID_11_" gradientUnits="userSpaceOnUse" x1="1333.8551" y1="6.0376" x2="643.2742" y2="123.2689">
		<stop  offset="0" style="stop-color:#00BDDD"/>
		<stop  offset="1" style="stop-color:#0076C0"/>
	</linearGradient>
	<path class="st11" d="M1158.5,22.1h-4.3c0,0-12,0-12.1,12.4l0,3.3c0,0,0,12.4,12,12.4h4.3c0,0,12,0,12-12.4v-3.3
		C1170.5,34.5,1170.5,22.1,1158.5,22.1"/>
</g>
</svg>
